<svg width="48" height="48" viewBox="0 0 48 48" fill="none" xmlns="http://www.w3.org/2000/svg">
<path d="M17.42 15.42L22 10.82V30C22 30.5305 22.2107 31.0392 22.5858 31.4142C22.9609 31.7893 23.4696 32 24 32C24.5304 32 25.0391 31.7893 25.4142 31.4142C25.7893 31.0392 26 30.5305 26 30V10.82L30.58 15.42C30.7659 15.6075 30.9871 15.7563 31.2308 15.8578C31.4746 15.9594 31.736 16.0116 32 16.0116C32.264 16.0116 32.5254 15.9594 32.7692 15.8578C33.0129 15.7563 33.2341 15.6075 33.42 15.42C33.6075 15.2341 33.7562 15.0129 33.8578 14.7692C33.9593 14.5255 34.0116 14.2641 34.0116 14C34.0116 13.736 33.9593 13.4746 33.8578 13.2309C33.7562 12.9872 33.6075 12.766 33.42 12.58L25.42 4.58004C25.2298 4.39796 25.0055 4.25523 24.76 4.16004C24.2731 3.96 23.7269 3.96 23.24 4.16004C22.9945 4.25523 22.7702 4.39796 22.58 4.58004L14.58 12.58C14.3935 12.7665 14.2456 12.9879 14.1447 13.2315C14.0438 13.4752 13.9918 13.7363 13.9918 14C13.9918 14.2638 14.0438 14.5249 14.1447 14.7685C14.2456 15.0122 14.3935 15.2336 14.58 15.42C14.7665 15.6065 14.9879 15.7544 15.2315 15.8554C15.4751 15.9563 15.7363 16.0082 16 16.0082C16.2637 16.0082 16.5249 15.9563 16.7685 15.8554C17.0121 15.7544 17.2335 15.6065 17.42 15.42ZM42 24C41.4696 24 40.9609 24.2108 40.5858 24.5858C40.2107 24.9609 40 25.4696 40 26V38C40 38.5305 39.7893 39.0392 39.4142 39.4143C39.0391 39.7893 38.5304 40 38 40H10C9.46957 40 8.96086 39.7893 8.58579 39.4143C8.21071 39.0392 8 38.5305 8 38V26C8 25.4696 7.78929 24.9609 7.41421 24.5858C7.03914 24.2108 6.53043 24 6 24C5.46957 24 4.96086 24.2108 4.58579 24.5858C4.21071 24.9609 4 25.4696 4 26V38C4 39.5913 4.63214 41.1175 5.75736 42.2427C6.88258 43.3679 8.4087 44 10 44H38C39.5913 44 41.1174 43.3679 42.2426 42.2427C43.3679 41.1175 44 39.5913 44 38V26C44 25.4696 43.7893 24.9609 43.4142 24.5858C43.0391 24.2108 42.5304 24 42 24Z" fill="#52525B"/>
</svg>
