<svg width="48" height="48" viewBox="0 0 48 48" fill="none" xmlns="http://www.w3.org/2000/svg">
<path d="M17.7736 15.7736L17.7743 15.7728L21.5 12.0309V30C21.5 30.6631 21.7634 31.299 22.2322 31.7678C22.7011 32.2366 23.337 32.5 24 32.5C24.663 32.5 25.2989 32.2366 25.7678 31.7678C26.2366 31.299 26.5 30.6631 26.5 30V12.0309L30.225 15.7721C30.2251 15.7722 30.2252 15.7723 30.2252 15.7724C30.4576 16.0066 30.734 16.1925 31.0386 16.3194C31.3432 16.4463 31.67 16.5116 32 16.5116C32.33 16.5116 32.6568 16.4463 32.9614 16.3194C33.2655 16.1927 33.5414 16.0072 33.7736 15.7736C34.0072 15.5415 34.1927 15.2655 34.3193 14.9615C34.4463 14.6568 34.5116 14.3301 34.5116 14C34.5116 13.67 34.4463 13.3432 34.3193 13.0386C34.1926 12.7343 34.0069 12.4581 33.773 12.2259C33.7727 12.2256 33.7724 12.2253 33.7721 12.225L25.7736 4.22648L25.7736 4.2264L25.7658 4.21885C25.5292 3.9924 25.2505 3.81465 24.9454 3.69566C24.3394 3.44813 23.6606 3.44812 23.0546 3.69566C22.7495 3.81465 22.4708 3.9924 22.2342 4.21885L22.2342 4.21877L22.2264 4.22648L14.2264 12.2265C13.9935 12.4594 13.8088 12.7359 13.6827 13.0402C13.5567 13.3445 13.4918 13.6707 13.4918 14C13.4918 14.3294 13.5567 14.6556 13.6827 14.9599C13.8088 15.2642 13.9935 15.5407 14.2264 15.7736C14.4594 16.0065 14.7359 16.1912 15.0402 16.3173C15.3445 16.4433 15.6706 16.5082 16 16.5082C16.3294 16.5082 16.6555 16.4433 16.9598 16.3173C17.2641 16.1912 17.5406 16.0065 17.7736 15.7736ZM42 23.5C41.337 23.5 40.7011 23.7634 40.2322 24.2323C39.7634 24.7011 39.5 25.337 39.5 26V38C39.5 38.3979 39.342 38.7794 39.0607 39.0607C38.7794 39.342 38.3978 39.5 38 39.5H10C9.60217 39.5 9.22064 39.342 8.93934 39.0607C8.65804 38.7794 8.5 38.3979 8.5 38V26C8.5 25.337 8.23661 24.7011 7.76777 24.2323C7.29893 23.7634 6.66304 23.5 6 23.5C5.33696 23.5 4.70107 23.7634 4.23223 24.2323C3.76339 24.7011 3.5 25.337 3.5 26V38C3.5 39.7239 4.18482 41.3772 5.40381 42.5962C6.62279 43.8152 8.27609 44.5 10 44.5H38C39.7239 44.5 41.3772 43.8152 42.5962 42.5962C43.8152 41.3772 44.5 39.7239 44.5 38V26C44.5 25.337 44.2366 24.7011 43.7678 24.2323C43.2989 23.7634 42.663 23.5 42 23.5Z" fill="#27272A" stroke="#3F3F46"/>
</svg>
